<svg width="159" height="45" viewBox="0 0 159 45" fill="none" xmlns="http://www.w3.org/2000/svg">
<path d="M9.79136 6.58412C10.2942 6.89198 10.5782 7.22531 10.7445 7.7952C10.8168 8.20413 10.792 8.62243 10.7791 9.03606C10.8253 9.03694 10.8716 9.03781 10.9193 9.03871C12.0658 9.09019 12.9812 9.51776 13.7921 10.3274C13.9383 10.4898 14.0818 10.6536 14.2221 10.8212C14.3497 10.9464 14.4135 10.9948 14.5915 11.0038C14.7318 10.8867 14.7318 10.8867 14.749 10.6925C14.6988 10.3404 14.5182 10.1555 14.284 9.89693C14.2439 9.85112 14.2038 9.8053 14.1625 9.7581C13.4031 8.94187 12.4713 8.56458 11.394 8.35967C11.394 8.17704 11.394 7.99441 11.394 7.80625C11.4872 7.75708 11.5808 7.70853 11.6745 7.66021C11.7266 7.6331 11.7787 7.60599 11.8323 7.57806C12.4763 7.28892 13.4153 7.22698 14.088 7.47189C14.2228 7.54131 14.2228 7.54131 14.3455 7.62178C14.411 7.66446 14.411 7.66446 14.4779 7.70801C14.8445 7.98726 15.0758 8.34991 15.2064 8.7901C15.2457 9.13836 15.2287 9.48653 15.2064 9.83544C15.252 9.84337 15.2975 9.8513 15.3445 9.85946C15.6647 9.93031 15.9264 10.0615 16.1556 10.2966C16.3607 10.6248 16.3495 10.9961 16.3132 11.3727C16.2054 11.7499 15.9372 12.0313 15.6925 12.3285C15.4728 12.6117 15.2828 12.9063 15.3294 13.2789C15.6299 13.3014 15.7788 13.254 16.025 13.0829C16.2396 12.9387 16.4529 12.7985 16.6783 12.6717C16.7419 12.6358 16.7419 12.6358 16.8068 12.5992C17.2224 12.4 17.7316 12.4217 18.1704 12.5266C18.722 12.7275 19.0184 13.0847 19.37 13.5374C19.5452 13.7669 19.5452 13.7669 19.8067 13.8631C19.939 13.8454 19.939 13.8454 20.0027 13.7708C20.0613 13.31 19.9113 13.028 19.6337 12.664C19.1566 12.1264 18.4178 11.7688 17.7028 11.7162C17.6098 11.7114 17.5169 11.707 17.4239 11.7032C17.376 11.7008 17.3281 11.6985 17.2787 11.696C17.1619 11.6903 17.045 11.6852 16.9281 11.6802C16.9244 11.6111 16.9207 11.5421 16.9168 11.471C16.9116 11.378 16.9064 11.285 16.9012 11.1921C16.8988 11.1469 16.8964 11.1016 16.8939 11.055C16.8805 10.8198 16.8601 10.5906 16.8248 10.3576C16.7901 10.0577 16.8559 9.81616 16.9473 9.53183C16.9767 9.43493 17.0058 9.33797 17.0348 9.24095C17.0486 9.19503 17.0624 9.1491 17.0767 9.10179C17.1215 8.94303 17.1513 8.78371 17.1779 8.621C17.2427 8.2745 17.4083 8.06902 17.6468 7.81394C17.9132 7.64306 18.0963 7.63577 18.4039 7.68327C18.9084 7.82489 19.2765 8.24821 19.5722 8.66712C19.5722 8.7077 19.5722 8.74829 19.5722 8.7901C19.6338 8.74785 19.6954 8.7056 19.7589 8.66208C19.8414 8.60609 19.9239 8.55012 20.0065 8.49418C20.0469 8.46639 20.0873 8.43861 20.1289 8.40999C20.5217 8.14489 20.8646 7.94527 21.3555 7.99072C21.8638 8.15375 22.1272 8.5912 22.3617 9.04564C22.6039 9.53229 22.7201 9.90097 22.7236 10.4427C22.7255 10.5155 22.7255 10.5155 22.7275 10.5899C22.7299 10.9491 22.6743 11.209 22.4224 11.483C22.3874 11.5113 22.3523 11.5396 22.3162 11.5687C22.2789 11.5989 22.2416 11.6291 22.2031 11.6602C22.0694 11.7594 21.932 11.8464 21.7859 11.9261C21.8062 12.0682 21.8265 12.2102 21.8474 12.3566C22.0746 12.3175 22.2745 12.2513 22.4892 12.1682C23.0671 11.9742 23.6744 11.9503 24.2342 12.2141C24.733 12.5148 24.9142 12.9182 25.0814 13.4583C25.1145 13.628 25.1145 13.7903 25.1141 13.963C25.1142 14.0278 25.1144 14.0927 25.1145 14.1595C25.1064 14.3243 25.1064 14.3243 25.0449 14.4472C20.0937 14.4472 15.1424 14.4472 10.0412 14.4472C10.1027 14.0783 10.1027 14.0783 10.1641 13.9553C10.2097 13.4767 10.1784 13.0754 9.91818 12.664C9.6245 12.3176 9.32526 12.1354 8.87572 12.0938C8.47419 12.0814 8.19201 12.0947 7.85752 12.3268C7.65259 12.5312 7.62472 12.7358 7.6046 13.0176C7.5977 13.1084 7.5977 13.1084 7.59066 13.2011C7.58615 13.2701 7.58615 13.2701 7.58154 13.3404C7.51793 13.3473 7.51793 13.3473 7.45303 13.3543C6.92756 13.4279 6.56832 13.6046 6.20184 13.9899C6.10642 14.1388 6.04601 14.2827 5.98278 14.4472C5.48241 14.4515 4.98205 14.4548 4.48167 14.4568C4.24925 14.4578 4.01684 14.4591 3.78443 14.4612C3.55956 14.4632 3.3347 14.4643 3.10982 14.4647C3.02462 14.4651 2.93941 14.4657 2.85421 14.4667C2.06875 14.4756 1.32764 14.399 0.69458 13.8938C0.317927 13.5039 0.139953 13.1615 0.121948 12.6179C0.135875 11.956 0.337931 11.4962 0.794743 11.023C1.24544 10.6047 1.78103 10.4291 2.3875 10.4371C2.67421 10.4621 2.84561 10.5704 3.04276 10.7732C3.29597 11.1574 3.36966 11.5001 3.42923 11.9523C3.44844 12.12 3.44844 12.12 3.58464 12.2336C3.77425 12.2438 3.77425 12.2438 3.95359 12.2336C4.14151 11.7658 4.16495 11.3511 4.1688 10.85C4.17392 10.1856 4.19812 9.53589 4.69147 9.03606C5.16207 8.65825 5.77765 8.76738 6.34019 8.82085C6.42607 8.83068 6.51193 8.84075 6.59769 8.85159C6.64346 8.76135 6.64346 8.76135 6.69016 8.66928C6.93097 8.20182 7.17856 7.77862 7.52005 7.37582C7.5657 7.3124 7.61136 7.24899 7.6584 7.18366C8.20231 6.61502 9.01525 6.2822 9.79136 6.58412Z" fill="#DDB900"/>
<path d="M7.643 15.1852C9.18519 15.1852 10.7274 15.1852 12.3163 15.1852C12.3163 24.3368 12.3163 33.4885 12.3163 42.9174C11.2205 42.9174 10.1248 42.9174 8.99579 42.9174C8.98628 42.4228 8.98628 42.4228 8.97658 41.9182C8.95232 40.863 8.89795 39.8109 8.8336 38.7574C8.76289 37.5977 8.70928 36.4381 8.66662 35.277C8.63898 34.5252 8.63898 34.5252 8.57854 33.7755C8.55403 33.5093 8.55001 33.2423 8.5423 32.9752C8.51673 32.2169 8.46885 31.4608 8.41932 30.7039C8.33993 29.4874 8.27846 28.2706 8.22332 27.0529C8.17522 25.9911 8.12674 24.9298 8.05492 23.8694C8.00539 23.1219 7.97499 22.3737 7.94281 21.6254C7.91089 20.8886 7.87032 20.1546 7.80791 19.4197C7.76388 18.8895 7.74168 18.3593 7.72549 17.8275C7.71616 17.5317 7.70199 17.2393 7.67206 16.9448C7.63027 16.3597 7.643 15.7718 7.643 15.1852Z" fill="#DDB900"/>
<path d="M13.1157 15.1852C14.6985 15.1852 16.2813 15.1852 17.912 15.1852C17.912 16.1538 17.912 16.1538 17.8914 16.5042C17.8868 16.5831 17.8823 16.6619 17.8776 16.7432C17.8726 16.8264 17.8676 16.9097 17.8625 16.9929C17.8573 17.0819 17.8521 17.1708 17.8469 17.2598C17.836 17.4453 17.8249 17.6309 17.8137 17.8164C17.7996 18.0494 17.7859 18.2824 17.7723 18.5154C17.7199 19.4137 17.6626 20.3109 17.5843 21.2073C17.5418 21.7001 17.5136 22.1927 17.4918 22.6868C17.4803 22.9446 17.4677 23.2023 17.4551 23.46C17.4511 23.5424 17.4511 23.5424 17.4471 23.6265C17.4138 24.3022 17.3755 24.9777 17.3363 25.6532C17.3281 25.794 17.32 25.9349 17.312 26.0758C17.3008 26.2736 17.2893 26.4715 17.2776 26.6693C17.2743 26.7285 17.271 26.7877 17.2676 26.8487C17.2643 26.9036 17.261 26.9585 17.2576 27.0151C17.2548 27.0627 17.252 27.1103 17.2492 27.1593C17.2356 27.2988 17.2356 27.2988 17.2054 27.4405C17.1651 27.6539 17.1539 27.8667 17.1428 28.0833C17.1402 28.1306 17.1376 28.178 17.1349 28.2268C17.1292 28.3299 17.1236 28.433 17.1182 28.5361C17.1093 28.7019 17.1003 28.8676 17.0911 29.0334C17.078 29.2707 17.065 29.508 17.0521 29.7454C17.0184 30.3655 16.9836 30.9857 16.9486 31.6058C16.9451 31.6673 16.9416 31.7288 16.938 31.7922C16.8603 33.1606 16.7643 34.5273 16.6621 35.8941C16.6102 36.5926 16.5654 37.2915 16.5208 37.9905C16.4711 38.7668 16.4189 39.5425 16.3565 40.3178C16.288 41.1835 16.2412 42.0506 16.1903 42.9174C15.1757 42.9174 14.1611 42.9174 13.1157 42.9174C13.1157 33.7658 13.1157 24.6141 13.1157 15.1852Z" fill="#DDB900"/>
<path d="M0.141174 15.1852C1.3384 15.1852 2.53562 15.1852 3.76912 15.1852C3.80971 15.5504 3.85029 15.9157 3.89211 16.292C3.92941 16.5677 3.96763 16.843 4.0074 17.1183C4.27916 19.0482 4.47219 20.9899 4.67454 22.9281C4.78287 23.9649 4.90189 24.999 5.04141 26.0321C5.15718 26.8913 5.25873 27.7517 5.35635 28.6132C5.45909 29.5197 5.56516 30.4256 5.6787 31.3308C5.68684 31.3957 5.68684 31.3957 5.69514 31.4619C5.74352 31.8474 5.79211 32.2328 5.84122 32.6182C5.95706 33.5275 6.06663 34.4367 6.16221 35.3484C6.30129 36.6672 6.4827 37.981 6.66061 39.295C6.76445 40.063 6.86311 40.8298 6.92828 41.6021C6.94576 41.8048 6.96354 41.9858 7.02813 42.1796C7.02813 42.4028 7.02813 42.626 7.02813 42.856C6.11499 42.856 5.20186 42.856 4.26105 42.856C3.83312 40.1038 3.83312 40.1038 3.6692 38.7361C3.57475 37.9485 3.46267 37.1682 3.32651 36.3864C3.23583 35.8605 3.16209 35.3341 3.09657 34.8045C3.00476 34.0646 2.89932 33.3277 2.78527 32.5909C2.77727 32.5392 2.76927 32.4875 2.76103 32.4342C2.6607 31.7879 2.55568 31.1426 2.44529 30.4979C2.33748 29.8581 2.24898 29.2154 2.16038 28.5726C2.09256 28.0843 2.01551 27.5989 1.92785 27.1137C1.8641 26.7589 1.81242 26.4035 1.76683 26.0459C1.71569 25.6569 1.65933 25.2716 1.58404 24.8865C1.53787 24.6114 1.50915 24.3341 1.48074 24.0567C1.45758 23.8418 1.42634 23.6345 1.37603 23.4242C1.28703 23.0409 1.23968 22.6509 1.18641 22.2615C1.08352 21.5109 0.972058 20.7628 0.844474 20.016C0.731257 19.353 0.630545 18.6892 0.538132 18.023C0.463353 17.4884 0.377775 16.9563 0.282996 16.425C0.210482 16.0084 0.176672 15.6111 0.141174 15.1852Z" fill="#DDB900"/>
<path d="M21.4784 15.1852C21.7625 15.1852 22.0466 15.1852 22.3393 15.1852C22.3507 15.5947 22.3064 15.9847 22.2495 16.39C22.2356 16.4919 22.2356 16.4919 22.2214 16.5959C22.1918 16.8123 22.1618 17.0287 22.1318 17.2451C22.0928 17.5288 22.0539 17.8126 22.015 18.0963C22.0056 18.1648 21.9963 18.2332 21.9866 18.3037C21.8714 19.1441 21.769 19.9855 21.6772 20.8288C21.6326 21.2254 21.5776 21.6192 21.5166 22.0135C21.3928 22.8197 21.2988 23.6297 21.2017 24.4395C20.9958 26.158 20.9958 26.158 20.8646 27.0056C20.8002 27.4245 20.7497 27.844 20.7041 28.2654C20.6036 29.1936 20.4889 30.1198 20.3716 31.0459C20.2652 31.8869 20.1623 32.728 20.0718 33.5709C19.9621 34.5908 19.8347 35.6084 19.7067 36.6262C19.6988 36.689 19.6988 36.689 19.6908 36.7531C19.648 37.0936 19.6052 37.4341 19.5623 37.7747C19.4521 38.6501 19.3432 39.5257 19.2354 40.4014C19.2167 40.5528 19.198 40.7042 19.1793 40.8555C19.1533 41.0654 19.1275 41.2753 19.1017 41.4851C19.0941 41.5458 19.0866 41.6065 19.0788 41.669C19.0358 42.0211 19.0008 42.3727 18.9739 42.7264C18.9573 42.856 18.9573 42.856 18.8958 42.9174C18.7408 42.9229 18.5875 42.9245 18.4325 42.9235C18.363 42.9233 18.363 42.9233 18.2921 42.9232C18.1436 42.9228 17.9951 42.9221 17.8466 42.9213C17.7462 42.921 17.6458 42.9207 17.5453 42.9205C17.2986 42.9198 17.0519 42.9187 16.8052 42.9174C16.7989 42.6294 16.8179 42.3657 16.8707 42.0828C16.8924 41.9643 16.8924 41.9643 16.9144 41.8435C16.9223 41.8014 16.9301 41.7593 16.9382 41.7159C16.9814 41.4832 17.0233 41.2502 17.065 41.0172C17.0784 40.9426 17.0784 40.9426 17.0921 40.8664C17.1987 40.2653 17.2915 39.6621 17.3855 39.0589C17.5299 38.1329 17.6892 37.211 17.863 36.2901C17.9779 35.6806 18.0813 35.0727 18.1588 34.4571C18.2127 34.0324 18.2871 33.6134 18.366 33.1927C18.4557 32.7115 18.5346 32.2288 18.6114 31.7454C18.7058 31.1525 18.8028 30.5601 18.9047 29.9685C18.9127 29.9219 18.9208 29.8753 18.929 29.8273C18.9519 29.6946 18.9748 29.5619 18.9977 29.4292C19.0965 28.8569 19.1931 28.2843 19.2879 27.7114C19.4967 26.4506 19.7131 25.1911 19.9306 23.9317C19.9609 23.7563 19.9912 23.5808 20.0214 23.4054C20.3111 21.7266 20.6031 20.0483 20.9013 18.371C20.9671 18.0006 21.0325 17.6301 21.0975 17.2595C21.1148 17.1611 21.1321 17.0627 21.1494 16.9643C21.173 16.8294 21.1967 16.6945 21.2203 16.5596C21.3007 16.1002 21.3848 15.6421 21.4784 15.1852Z" fill="#DDB900"/>
<path d="M14.407 3.7479C14.6099 3.83879 14.7476 3.9556 14.8989 4.11685C14.9343 4.15442 14.9697 4.19199 15.0061 4.2307C15.1488 4.39114 15.2716 4.55287 15.3909 4.73175C15.464 4.71689 15.464 4.71689 15.5386 4.70173C15.8099 4.66313 16.0741 4.65894 16.3478 4.65873C16.3993 4.65798 16.4508 4.65723 16.5038 4.65645C16.9373 4.65542 17.2206 4.73327 17.543 5.03921C17.816 5.43087 17.9013 5.79915 17.8505 6.26902C17.7227 6.78979 17.5074 7.18435 17.0665 7.49499C16.9281 7.56032 16.9281 7.56032 16.8052 7.56032C16.6915 7.81303 16.6397 8.06524 16.5938 8.33664C16.5222 8.74088 16.4308 9.13432 16.3132 9.52803C16.1493 9.48703 15.9853 9.44604 15.8213 9.40505C15.8144 9.31135 15.8144 9.31135 15.8074 9.21577C15.7487 8.5588 15.6124 8.01461 15.1718 7.49883C15.1224 7.45825 15.0729 7.41767 15.0219 7.37585C14.975 7.334 14.9281 7.29215 14.8797 7.24903C14.145 6.71932 13.3225 6.62268 12.4393 6.69946C12.0533 6.78123 11.6972 6.92092 11.3325 7.0684C11.4747 6.77555 11.6599 6.59885 11.9474 6.45349C12.1506 6.39602 12.3531 6.35871 12.5623 6.33051C12.5526 6.28612 12.543 6.24173 12.533 6.196C12.4104 5.53745 12.5538 4.97088 12.8979 4.39812C12.9848 4.2763 13.0767 4.16608 13.1772 4.05536C13.2279 3.99448 13.2787 3.9336 13.3309 3.87088C13.6294 3.63953 14.0558 3.69164 14.407 3.7479Z" fill="#DDB900"/>
<path d="M20.0641 0.550366C20.3648 0.679206 20.4912 0.788899 20.6713 1.05766C20.7828 1.19644 20.8608 1.27807 21.0401 1.30651C21.2242 1.31323 21.4045 1.30774 21.588 1.29168C21.8358 1.27274 21.9533 1.28018 22.1851 1.3901C22.3393 1.53422 22.3393 1.53422 22.3818 1.6889C22.3662 2.01984 22.3254 2.28473 22.1976 2.59013C22.1216 2.78997 22.1172 2.92258 22.1548 3.13297C22.2556 3.27382 22.3644 3.39629 22.4851 3.52041C22.695 3.7394 22.6671 3.96424 22.664 4.25446C22.6399 4.49175 22.5593 4.61755 22.4008 4.79322C22.3629 4.83706 22.325 4.88089 22.286 4.92605C21.9337 5.13294 21.5172 5.04788 21.1199 5.02958C20.6103 5.01466 20.6103 5.01466 20.1871 5.28515C20.075 5.3941 19.972 5.50751 19.8679 5.62407C19.7258 5.741 19.6327 5.76832 19.4492 5.77707C19.1402 5.62287 18.9366 5.3559 18.8036 5.04303C18.6626 4.60043 18.6906 4.14495 18.7113 3.68639C18.6749 3.67894 18.6386 3.67149 18.6011 3.66381C17.9319 3.52191 17.9319 3.52191 17.789 3.37894C17.7743 3.24923 17.7743 3.24923 17.7698 3.08686C17.7675 3.03391 17.7652 2.98096 17.7628 2.9264C17.7984 2.70575 17.8789 2.61565 18.0349 2.45658C18.17 2.361 18.3004 2.27485 18.4423 2.1914C18.4783 2.16932 18.5143 2.14725 18.5514 2.1245C18.8169 1.96465 18.8169 1.96465 18.9573 1.96465C18.9626 1.91709 18.9679 1.86953 18.9734 1.82053C19.0407 1.32166 19.1578 0.980044 19.503 0.611856C19.7032 0.517655 19.8452 0.524392 20.0641 0.550366Z" fill="#DDB900"/>
<path d="M22.7083 31.4187C22.7885 31.6884 22.7435 31.9256 22.7006 32.1989C22.6922 32.2548 22.6838 32.3107 22.6752 32.3683C22.6457 32.5643 22.6155 32.7601 22.5853 32.956C22.5364 33.2749 22.4878 33.5939 22.4392 33.9129C22.4327 33.9556 22.4262 33.9983 22.4195 34.0423C22.2004 35.4818 22.0017 36.924 21.8243 38.3693C21.7604 38.8903 21.6915 39.4097 21.6104 39.9283C21.5246 40.4821 21.4539 41.0379 21.3828 41.5938C21.3731 41.6687 21.3633 41.7435 21.3533 41.8207C21.3448 41.887 21.3363 41.9532 21.3276 42.0214C21.2848 42.3012 21.2265 42.5784 21.171 42.856C20.5825 42.856 19.9941 42.856 19.3878 42.856C19.4562 42.2404 19.4562 42.2404 19.5492 41.9682C19.6838 41.5516 19.7977 41.1306 19.9104 40.7076C20.1257 39.9029 20.3508 39.1046 20.6047 38.3112C20.6979 38.0177 20.783 37.7239 20.8597 37.4256C20.9567 37.0506 21.0707 36.6833 21.1902 36.3149C21.3433 35.8425 21.483 35.3684 21.613 34.8891C21.9321 33.7189 22.3241 32.5689 22.7083 31.4187Z" fill="#DDB900"/>
<path d="M23.4526 5.33031C23.7999 5.30401 23.9981 5.38092 24.2621 5.6075C24.5301 5.87979 24.6283 6.09861 24.6452 6.48422C24.6292 6.88639 24.514 7.11827 24.2148 7.39505C23.8398 7.64817 23.5267 7.67061 23.0772 7.6218C22.7686 7.47303 22.5545 7.25291 22.4008 6.9454C22.3581 6.48074 22.3324 6.06732 22.6249 5.68388C22.8819 5.40243 23.0826 5.377 23.4526 5.33031Z" fill="#DDB900"/>
<path d="M22.7083 31.4187C22.7673 31.6093 22.7692 31.7507 22.7397 31.9474C22.7318 32.0015 22.7239 32.0555 22.7158 32.1113C22.707 32.1681 22.6981 32.2249 22.689 32.2834C22.6804 32.3412 22.6718 32.399 22.6629 32.4586C22.6036 32.8512 22.5398 33.2429 22.4623 33.6324C22.4217 33.6324 22.3811 33.6324 22.3393 33.6324C22.319 33.6729 22.2987 33.7135 22.2778 33.7553C22.1967 33.7148 22.1155 33.6742 22.0319 33.6324C22.1633 33.0444 22.3486 32.4792 22.5435 31.91C22.5993 31.7465 22.6539 31.5826 22.7083 31.4187Z" fill="#DDB900"/>
<path d="M24.9219 10.5734C24.9932 10.7872 24.9655 10.909 24.9219 11.1268C24.8814 11.1268 24.8408 11.1268 24.799 11.1268C24.799 11.1674 24.799 11.2079 24.799 11.2498C24.7584 11.2498 24.7178 11.2498 24.676 11.2498C24.6557 11.2903 24.6354 11.3309 24.6145 11.3727C24.5942 11.3525 24.5739 11.3322 24.553 11.3113C24.553 11.433 24.553 11.5548 24.553 11.6802C24.3907 11.6396 24.2283 11.599 24.0611 11.5572C24.0611 11.5166 24.0611 11.476 24.0611 11.4342C24.1016 11.4342 24.1422 11.4342 24.184 11.4342C24.2047 11.3833 24.2047 11.3833 24.2258 11.3314C24.3319 11.1445 24.4685 11.0152 24.6222 10.8654C24.6781 10.8106 24.7341 10.7557 24.7917 10.6992C24.8347 10.6577 24.8777 10.6162 24.9219 10.5734Z" fill="#DDB900"/>
<path d="M33.3008 27.0195H28.9766L28.9531 25.2031H32.8789C33.5273 25.2031 34.0938 25.0938 34.5781 24.875C35.0625 24.6562 35.4375 24.3438 35.7031 23.9375C35.9766 23.5234 36.1133 23.0312 36.1133 22.4609C36.1133 21.8359 35.9922 21.3281 35.75 20.9375C35.5156 20.5391 35.1523 20.25 34.6602 20.0703C34.1758 19.8828 33.5586 19.7891 32.8086 19.7891H29.4805V35H27.2188V17.9375H32.8086C33.6836 17.9375 34.4648 18.0273 35.1523 18.207C35.8398 18.3789 36.4219 18.6523 36.8984 19.0273C37.3828 19.3945 37.75 19.8633 38 20.4336C38.25 21.0039 38.375 21.6875 38.375 22.4844C38.375 23.1875 38.1953 23.8242 37.8359 24.3945C37.4766 24.957 36.9766 25.418 36.3359 25.7773C35.7031 26.1367 34.9609 26.3672 34.1094 26.4688L33.3008 27.0195ZM33.1953 35H28.0859L29.3633 33.1602H33.1953C33.9141 33.1602 34.5234 33.0352 35.0234 32.7852C35.5312 32.5352 35.918 32.1836 36.1836 31.7305C36.4492 31.2695 36.582 30.7266 36.582 30.1016C36.582 29.4688 36.4688 28.9219 36.2422 28.4609C36.0156 28 35.6602 27.6445 35.1758 27.3945C34.6914 27.1445 34.0664 27.0195 33.3008 27.0195H30.0781L30.1016 25.2031H34.5078L34.9883 25.8594C35.8086 25.9297 36.5039 26.1641 37.0742 26.5625C37.6445 26.9531 38.0781 27.4531 38.375 28.0625C38.6797 28.6719 38.832 29.3438 38.832 30.0781C38.832 31.1406 38.5977 32.0391 38.1289 32.7734C37.668 33.5 37.0156 34.0547 36.1719 34.4375C35.3281 34.8125 34.3359 35 33.1953 35ZM44.1992 22.3203V35H42.0195V22.3203H44.1992ZM41.8555 18.957C41.8555 18.6055 41.9609 18.3086 42.1719 18.0664C42.3906 17.8242 42.7109 17.7031 43.1328 17.7031C43.5469 17.7031 43.8633 17.8242 44.082 18.0664C44.3086 18.3086 44.4219 18.6055 44.4219 18.957C44.4219 19.293 44.3086 19.582 44.082 19.8242C43.8633 20.0586 43.5469 20.1758 43.1328 20.1758C42.7109 20.1758 42.3906 20.0586 42.1719 19.8242C41.9609 19.582 41.8555 19.293 41.8555 18.957ZM49.8477 25.0273V35H47.6797V22.3203H49.7305L49.8477 25.0273ZM49.332 28.1797L48.4297 28.1445C48.4375 27.2773 48.5664 26.4766 48.8164 25.7422C49.0664 25 49.418 24.3555 49.8711 23.8086C50.3242 23.2617 50.8633 22.8398 51.4883 22.543C52.1211 22.2383 52.8203 22.0859 53.5859 22.0859C54.2109 22.0859 54.7734 22.1719 55.2734 22.3438C55.7734 22.5078 56.1992 22.7734 56.5508 23.1406C56.9102 23.5078 57.1836 23.9844 57.3711 24.5703C57.5586 25.1484 57.6523 25.8555 57.6523 26.6914V35H55.4727V26.668C55.4727 26.0039 55.375 25.4727 55.1797 25.0742C54.9844 24.668 54.6992 24.375 54.3242 24.1953C53.9492 24.0078 53.4883 23.9141 52.9414 23.9141C52.4023 23.9141 51.9102 24.0273 51.4648 24.2539C51.0273 24.4805 50.6484 24.793 50.3281 25.1914C50.0156 25.5898 49.7695 26.0469 49.5898 26.5625C49.418 27.0703 49.332 27.6094 49.332 28.1797ZM69.1602 22.3203H71.1289V34.7305C71.1289 35.8477 70.9023 36.8008 70.4492 37.5898C69.9961 38.3789 69.3633 38.9766 68.5508 39.3828C67.7461 39.7969 66.8164 40.0039 65.7617 40.0039C65.3242 40.0039 64.8086 39.9336 64.2148 39.793C63.6289 39.6602 63.0508 39.4297 62.4805 39.1016C61.918 38.7812 61.4453 38.3477 61.0625 37.8008L62.1992 36.5117C62.7305 37.1523 63.2852 37.5977 63.8633 37.8477C64.4492 38.0977 65.0273 38.2227 65.5977 38.2227C66.2852 38.2227 66.8789 38.0938 67.3789 37.8359C67.8789 37.5781 68.2656 37.1953 68.5391 36.6875C68.8203 36.1875 68.9609 35.5703 68.9609 34.8359V25.1094L69.1602 22.3203ZM60.4297 28.8008V28.5547C60.4297 27.5859 60.543 26.707 60.7695 25.918C61.0039 25.1211 61.3359 24.4375 61.7656 23.8672C62.2031 23.2969 62.7305 22.8594 63.3477 22.5547C63.9648 22.2422 64.6602 22.0859 65.4336 22.0859C66.2305 22.0859 66.9258 22.2266 67.5195 22.5078C68.1211 22.7812 68.6289 23.1836 69.043 23.7148C69.4648 24.2383 69.7969 24.8711 70.0391 25.6133C70.2812 26.3555 70.4492 27.1953 70.543 28.1328V29.2109C70.457 30.1406 70.2891 30.9766 70.0391 31.7188C69.7969 32.4609 69.4648 33.0938 69.043 33.6172C68.6289 34.1406 68.1211 34.543 67.5195 34.8242C66.918 35.0977 66.2148 35.2344 65.4102 35.2344C64.6523 35.2344 63.9648 35.0742 63.3477 34.7539C62.7383 34.4336 62.2148 33.9844 61.7773 33.4062C61.3398 32.8281 61.0039 32.1484 60.7695 31.3672C60.543 30.5781 60.4297 29.7227 60.4297 28.8008ZM62.5977 28.5547V28.8008C62.5977 29.4336 62.6602 30.0273 62.7852 30.582C62.918 31.1367 63.1172 31.625 63.3828 32.0469C63.6562 32.4688 64.0039 32.8008 64.4258 33.043C64.8477 33.2773 65.3516 33.3945 65.9375 33.3945C66.6562 33.3945 67.25 33.2422 67.7188 32.9375C68.1875 32.6328 68.5586 32.2305 68.832 31.7305C69.1133 31.2305 69.332 30.6875 69.4883 30.1016V27.2773C69.4023 26.8477 69.2695 26.4336 69.0898 26.0352C68.918 25.6289 68.6914 25.2695 68.4102 24.957C68.1367 24.6367 67.7969 24.3828 67.3906 24.1953C66.9844 24.0078 66.5078 23.9141 65.9609 23.9141C65.3672 23.9141 64.8555 24.0391 64.4258 24.2891C64.0039 24.5312 63.6562 24.8672 63.3828 25.2969C63.1172 25.7188 62.918 26.2109 62.7852 26.7734C62.6602 27.3281 62.5977 27.9219 62.5977 28.5547ZM79.6836 35.2344C78.8008 35.2344 78 35.0859 77.2812 34.7891C76.5703 34.4844 75.957 34.0586 75.4414 33.5117C74.9336 32.9648 74.543 32.3164 74.2695 31.5664C73.9961 30.8164 73.8594 29.9961 73.8594 29.1055V28.6133C73.8594 27.582 74.0117 26.6641 74.3164 25.8594C74.6211 25.0469 75.0352 24.3594 75.5586 23.7969C76.082 23.2344 76.6758 22.8086 77.3398 22.5195C78.0039 22.2305 78.6914 22.0859 79.4023 22.0859C80.3086 22.0859 81.0898 22.2422 81.7461 22.5547C82.4102 22.8672 82.9531 23.3047 83.375 23.8672C83.7969 24.4219 84.1094 25.0781 84.3125 25.8359C84.5156 26.5859 84.6172 27.4062 84.6172 28.2969V29.2695H75.1484V27.5H82.4492V27.3359C82.418 26.7734 82.3008 26.2266 82.0977 25.6953C81.9023 25.1641 81.5898 24.7266 81.1602 24.3828C80.7305 24.0391 80.1445 23.8672 79.4023 23.8672C78.9102 23.8672 78.457 23.9727 78.043 24.1836C77.6289 24.3867 77.2734 24.6914 76.9766 25.0977C76.6797 25.5039 76.4492 26 76.2852 26.5859C76.1211 27.1719 76.0391 27.8477 76.0391 28.6133V29.1055C76.0391 29.707 76.1211 30.2734 76.2852 30.8047C76.457 31.3281 76.7031 31.7891 77.0234 32.1875C77.3516 32.5859 77.7461 32.8984 78.207 33.125C78.6758 33.3516 79.207 33.4648 79.8008 33.4648C80.5664 33.4648 81.2148 33.3086 81.7461 32.9961C82.2773 32.6836 82.7422 32.2656 83.1406 31.7422L84.4531 32.7852C84.1797 33.1992 83.832 33.5938 83.4102 33.9688C82.9883 34.3438 82.4688 34.6484 81.8516 34.8828C81.2422 35.1172 80.5195 35.2344 79.6836 35.2344ZM93.5586 27.0195H89.2344L89.2109 25.2031H93.1367C93.7852 25.2031 94.3516 25.0938 94.8359 24.875C95.3203 24.6562 95.6953 24.3438 95.9609 23.9375C96.2344 23.5234 96.3711 23.0312 96.3711 22.4609C96.3711 21.8359 96.25 21.3281 96.0078 20.9375C95.7734 20.5391 95.4102 20.25 94.918 20.0703C94.4336 19.8828 93.8164 19.7891 93.0664 19.7891H89.7383V35H87.4766V17.9375H93.0664C93.9414 17.9375 94.7227 18.0273 95.4102 18.207C96.0977 18.3789 96.6797 18.6523 97.1562 19.0273C97.6406 19.3945 98.0078 19.8633 98.2578 20.4336C98.5078 21.0039 98.6328 21.6875 98.6328 22.4844C98.6328 23.1875 98.4531 23.8242 98.0938 24.3945C97.7344 24.957 97.2344 25.418 96.5938 25.7773C95.9609 26.1367 95.2188 26.3672 94.3672 26.4688L93.5586 27.0195ZM93.4531 35H88.3438L89.6211 33.1602H93.4531C94.1719 33.1602 94.7812 33.0352 95.2812 32.7852C95.7891 32.5352 96.1758 32.1836 96.4414 31.7305C96.707 31.2695 96.8398 30.7266 96.8398 30.1016C96.8398 29.4688 96.7266 28.9219 96.5 28.4609C96.2734 28 95.918 27.6445 95.4336 27.3945C94.9492 27.1445 94.3242 27.0195 93.5586 27.0195H90.3359L90.3594 25.2031H94.7656L95.2461 25.8594C96.0664 25.9297 96.7617 26.1641 97.332 26.5625C97.9023 26.9531 98.3359 27.4531 98.6328 28.0625C98.9375 28.6719 99.0898 29.3438 99.0898 30.0781C99.0898 31.1406 98.8555 32.0391 98.3867 32.7734C97.9258 33.5 97.2734 34.0547 96.4297 34.4375C95.5859 34.8125 94.5938 35 93.4531 35ZM109.859 32.0703V22.3203H112.039V35H109.965L109.859 32.0703ZM110.27 29.3984L111.172 29.375C111.172 30.2188 111.082 31 110.902 31.7188C110.73 32.4297 110.449 33.0469 110.059 33.5703C109.668 34.0938 109.156 34.5039 108.523 34.8008C107.891 35.0898 107.121 35.2344 106.215 35.2344C105.598 35.2344 105.031 35.1445 104.516 34.9648C104.008 34.7852 103.57 34.5078 103.203 34.1328C102.836 33.7578 102.551 33.2695 102.348 32.668C102.152 32.0664 102.055 31.3438 102.055 30.5V22.3203H104.223V30.5234C104.223 31.0938 104.285 31.5664 104.41 31.9414C104.543 32.3086 104.719 32.6016 104.938 32.8203C105.164 33.0312 105.414 33.1797 105.688 33.2656C105.969 33.3516 106.258 33.3945 106.555 33.3945C107.477 33.3945 108.207 33.2188 108.746 32.8672C109.285 32.5078 109.672 32.0273 109.906 31.4258C110.148 30.8164 110.27 30.1406 110.27 29.3984ZM120.418 33.4531C120.934 33.4531 121.41 33.3477 121.848 33.1367C122.285 32.9258 122.645 32.6367 122.926 32.2695C123.207 31.8945 123.367 31.4688 123.406 30.9922H125.469C125.43 31.7422 125.176 32.4414 124.707 33.0898C124.246 33.7305 123.641 34.25 122.891 34.6484C122.141 35.0391 121.316 35.2344 120.418 35.2344C119.465 35.2344 118.633 35.0664 117.922 34.7305C117.219 34.3945 116.633 33.9336 116.164 33.3477C115.703 32.7617 115.355 32.0898 115.121 31.332C114.895 30.5664 114.781 29.7578 114.781 28.9062V28.4141C114.781 27.5625 114.895 26.7578 115.121 26C115.355 25.2344 115.703 24.5586 116.164 23.9727C116.633 23.3867 117.219 22.9258 117.922 22.5898C118.633 22.2539 119.465 22.0859 120.418 22.0859C121.41 22.0859 122.277 22.2891 123.02 22.6953C123.762 23.0938 124.344 23.6406 124.766 24.3359C125.195 25.0234 125.43 25.8047 125.469 26.6797H123.406C123.367 26.1562 123.219 25.6836 122.961 25.2617C122.711 24.8398 122.367 24.5039 121.93 24.2539C121.5 23.9961 120.996 23.8672 120.418 23.8672C119.754 23.8672 119.195 24 118.742 24.2656C118.297 24.5234 117.941 24.875 117.676 25.3203C117.418 25.7578 117.23 26.2461 117.113 26.7852C117.004 27.3164 116.949 27.8594 116.949 28.4141V28.9062C116.949 29.4609 117.004 30.0078 117.113 30.5469C117.223 31.0859 117.406 31.5742 117.664 32.0117C117.93 32.4492 118.285 32.8008 118.73 33.0664C119.184 33.3242 119.746 33.4531 120.418 33.4531ZM130.086 17V35H127.906V17H130.086ZM137.832 22.3203L132.301 28.2383L129.207 31.4492L129.031 29.1406L131.246 26.4922L135.184 22.3203H137.832ZM135.852 35L131.328 28.9531L132.453 27.0195L138.406 35H135.852ZM145.098 35.2344C144.215 35.2344 143.414 35.0859 142.695 34.7891C141.984 34.4844 141.371 34.0586 140.855 33.5117C140.348 32.9648 139.957 32.3164 139.684 31.5664C139.41 30.8164 139.273 29.9961 139.273 29.1055V28.6133C139.273 27.582 139.426 26.6641 139.73 25.8594C140.035 25.0469 140.449 24.3594 140.973 23.7969C141.496 23.2344 142.09 22.8086 142.754 22.5195C143.418 22.2305 144.105 22.0859 144.816 22.0859C145.723 22.0859 146.504 22.2422 147.16 22.5547C147.824 22.8672 148.367 23.3047 148.789 23.8672C149.211 24.4219 149.523 25.0781 149.727 25.8359C149.93 26.5859 150.031 27.4062 150.031 28.2969V29.2695H140.562V27.5H147.863V27.3359C147.832 26.7734 147.715 26.2266 147.512 25.6953C147.316 25.1641 147.004 24.7266 146.574 24.3828C146.145 24.0391 145.559 23.8672 144.816 23.8672C144.324 23.8672 143.871 23.9727 143.457 24.1836C143.043 24.3867 142.688 24.6914 142.391 25.0977C142.094 25.5039 141.863 26 141.699 26.5859C141.535 27.1719 141.453 27.8477 141.453 28.6133V29.1055C141.453 29.707 141.535 30.2734 141.699 30.8047C141.871 31.3281 142.117 31.7891 142.438 32.1875C142.766 32.5859 143.16 32.8984 143.621 33.125C144.09 33.3516 144.621 33.4648 145.215 33.4648C145.98 33.4648 146.629 33.3086 147.16 32.9961C147.691 32.6836 148.156 32.2656 148.555 31.7422L149.867 32.7852C149.594 33.1992 149.246 33.5938 148.824 33.9688C148.402 34.3438 147.883 34.6484 147.266 34.8828C146.656 35.1172 145.934 35.2344 145.098 35.2344ZM157.871 22.3203V23.9844H151.016V22.3203H157.871ZM153.336 19.2383H155.504V31.8594C155.504 32.2891 155.57 32.6133 155.703 32.832C155.836 33.0508 156.008 33.1953 156.219 33.2656C156.43 33.3359 156.656 33.3711 156.898 33.3711C157.078 33.3711 157.266 33.3555 157.461 33.3242C157.664 33.2852 157.816 33.2539 157.918 33.2305L157.93 35C157.758 35.0547 157.531 35.1055 157.25 35.1523C156.977 35.207 156.645 35.2344 156.254 35.2344C155.723 35.2344 155.234 35.1289 154.789 34.918C154.344 34.707 153.988 34.3555 153.723 33.8633C153.465 33.3633 153.336 32.6914 153.336 31.8477V19.2383Z" fill="url(#paint0_linear_16_1364)"/>
<defs>
<linearGradient id="paint0_linear_16_1364" x1="25" y1="27" x2="159" y2="27" gradientUnits="userSpaceOnUse">
<stop stop-color="#FFD700"/>
<stop offset="1" stop-color="#C49216"/>
</linearGradient>
</defs>
</svg>
